<svg width="2400" height="800" viewBox="0 0 2400 800" fill="none" xmlns="http://www.w3.org/2000/svg">
<rect x="140" y="64" width="448" height="447" rx="223.5" fill="#73CBF3"/>
<path d="M180 414.795H548L364 736.181L180 414.795Z" fill="#73CBF3"/>
<rect x="174.526" y="98.4492" width="378.947" height="378.102" rx="189.051" fill="#FFE669"/>
<mask id="mask0_857_2161" style="mask-type:alpha" maskUnits="userSpaceOnUse" x="174" y="98" width="380" height="379">
<rect x="174.526" y="98.4492" width="378.947" height="378.102" rx="189.051" fill="#FFE669"/>
</mask>
<g mask="url(#mask0_857_2161)">
<rect x="245.263" y="77.4434" width="421.053" height="420.113" rx="210.056" fill="#D9D9D9"/>
</g>
<rect x="310.948" y="138.78" width="42.1053" height="42.0113" rx="21.0056" fill="white"/>
<rect x="406.947" y="148.863" width="74.1053" height="73.9398" rx="36.9699" fill="white"/>
<rect x="292.421" y="348.836" width="74.1053" height="73.9398" rx="36.9699" fill="white"/>
<rect x="427.157" y="318.588" width="42.1053" height="42.0113" rx="21.0056" fill="white"/>
<rect x="385.053" y="414.374" width="20.2105" height="20.1654" rx="10.0827" fill="white"/>
<rect x="513.053" y="278.258" width="20.2105" height="20.1654" rx="10.0827" fill="white"/>
<rect x="309.264" y="232.885" width="65.6842" height="65.5376" rx="32.7688" fill="white"/>
<rect x="194.736" y="276.577" width="42.1053" height="42.0113" rx="21.0056" fill="white"/>
<rect x="228.421" y="182.473" width="20.2105" height="20.1654" rx="10.0827" fill="white"/>
<rect x="2192.33" y="163" width="105.748" height="105.512" rx="52.7561" transform="rotate(30 2192.33 163)" fill="#73CBF3"/>
<path d="M2159.11 239.431L2234.34 282.863L2158.79 326.845L2159.11 239.431Z" fill="#73CBF3"/>
<rect x="2194" y="217" width="36" height="36" rx="18" fill="white"/>
<path d="M907.469 339.281C892.885 333.552 878.823 326.521 865.281 318.188C851.74 309.594 842.755 303.344 838.328 299.438C834.161 295.531 830.776 292.276 828.172 289.672L861.766 256.859C869.318 264.411 879.995 272.354 893.797 280.688C920.62 296.573 949.005 305.818 978.953 308.422L987.156 352.953C950.177 370.401 922.312 384.073 903.562 393.969L881.688 352.172C888.458 348.786 897.052 344.49 907.469 339.281ZM782.469 479.125C782.469 468.708 784.552 458.682 788.719 449.047C793.146 439.411 799.266 429.125 807.078 418.188L845.359 444.75C834.682 460.635 829.344 472.094 829.344 479.125C829.344 491.104 832.599 500.349 839.109 506.859C848.745 515.974 866.323 521.964 891.844 524.828C908.51 526.391 935.333 526.521 972.312 525.219C989.5 524.438 1001.87 524.047 1009.42 524.047V570.922C1002.39 570.922 990.672 571.312 974.266 572.094C953.953 572.875 938.589 573.266 928.172 573.266C912.547 573.266 898.745 572.615 886.766 571.312C850.828 567.667 824.135 557.51 806.688 540.844C790.542 524.958 782.469 504.385 782.469 479.125ZM1303.47 339.281C1288.89 333.552 1274.82 326.521 1261.28 318.188C1247.74 309.594 1238.76 303.344 1234.33 299.438C1230.16 295.531 1226.78 292.276 1224.17 289.672L1257.77 256.859C1265.32 264.411 1275.99 272.354 1289.8 280.688C1316.62 296.573 1345.01 305.818 1374.95 308.422L1383.16 352.953C1346.18 370.401 1318.31 384.073 1299.56 393.969L1277.69 352.172C1284.46 348.786 1293.05 344.49 1303.47 339.281ZM1178.47 479.125C1178.47 468.708 1180.55 458.682 1184.72 449.047C1189.15 439.411 1195.27 429.125 1203.08 418.188L1241.36 444.75C1230.68 460.635 1225.34 472.094 1225.34 479.125C1225.34 491.104 1228.6 500.349 1235.11 506.859C1244.74 515.974 1262.32 521.964 1287.84 524.828C1304.51 526.391 1331.33 526.521 1368.31 525.219C1385.5 524.438 1397.87 524.047 1405.42 524.047V570.922C1398.39 570.922 1386.67 571.312 1370.27 572.094C1349.95 572.875 1334.59 573.266 1324.17 573.266C1308.55 573.266 1294.74 572.615 1282.77 571.312C1246.83 567.667 1220.14 557.51 1202.69 540.844C1186.54 524.958 1178.47 504.385 1178.47 479.125ZM1766.66 377.172C1782.28 379.516 1794.26 389.542 1802.59 407.25C1809.1 421.312 1812.23 437.198 1811.97 454.906C1811.71 473.917 1807.54 490.453 1799.47 504.516C1791.92 517.016 1777.98 529.255 1757.67 541.234C1736.58 553.734 1713.27 562.979 1687.75 568.969L1678.77 530.688C1700.64 525.74 1719.52 518.578 1735.41 509.203C1751.55 499.568 1761.58 491.365 1765.48 484.594C1770.43 476.521 1772.91 466.234 1772.91 453.734C1773.17 441.234 1771.34 431.339 1767.44 424.047C1764.83 418.839 1762.62 416.104 1760.8 415.844C1755.07 414.802 1747.26 415.583 1737.36 418.188C1727.72 420.792 1719.39 423.526 1712.36 426.391C1705.59 429.255 1695.95 433.422 1683.45 438.891C1655.07 451.651 1635.02 458.943 1623.3 460.766C1608.97 462.589 1593.22 458.161 1576.03 447.484L1596.73 414.281C1600.12 416.365 1604.03 418.318 1608.45 420.141C1612.88 421.703 1616.01 422.354 1617.83 422.094C1625.9 420.792 1642.44 414.542 1667.44 403.344C1682.8 396.573 1694.65 391.495 1702.98 388.109C1711.32 384.724 1721.6 381.729 1733.84 379.125C1746.34 376.26 1757.28 375.609 1766.66 377.172ZM2079.45 405.297C2078.93 406.078 2085.57 416.625 2099.38 436.938C2137.66 421.833 2165.52 417.927 2182.97 425.219C2200.42 432.25 2218.91 447.354 2238.44 470.531C2258.23 493.708 2269.43 515.062 2272.03 534.594L2225.94 541.234C2224.38 530.557 2216.43 516.885 2202.11 500.219C2188.05 483.292 2175.81 472.615 2165.39 468.188C2158.62 466.885 2145.08 469.88 2124.77 477.172C2145.08 516.234 2141.56 544.359 2114.22 561.547C2086.35 578.214 2040 578.995 1975.16 563.891C1973.07 563.37 1971.12 562.849 1969.3 562.328C1957.32 570.401 1947.55 577.693 1940 584.203L1909.92 548.266C1923.98 536.286 1943.39 522.354 1968.12 506.469C1997.29 487.719 2026.33 471.182 2055.23 456.859C2044.04 440.714 2037.53 430.167 2035.7 425.219C2031.54 415.323 2029.32 407.38 2029.06 401.391V400.609C2029.58 386.807 2041.04 372.484 2063.44 357.641C2069.69 353.474 2076.33 349.307 2083.36 345.141C2065.91 317.016 2054.06 285.896 2047.81 251.781L2093.91 243.578C2101.72 282.641 2115.65 314.151 2135.7 338.109L2128.67 374.047L2123.98 376.781C2096.12 392.146 2081.28 401.651 2079.45 405.297ZM2081.41 496.312C2062.14 505.688 2042.08 516.625 2021.25 529.125C2059.79 531.729 2083.1 529.255 2091.17 521.703C2091.17 516.234 2087.92 507.771 2081.41 496.312Z" fill="#333333"/>
</svg>
