<svg width="2400" height="800" fill="none" xmlns="http://www.w3.org/2000/svg"><rect x="140" y="64" width="448" height="447" rx="223.5" fill="#73CBF3"/><path d="M180 414.795h368L364 736.181 180 414.795z" fill="#73CBF3"/><rect x="174.526" y="98.449" width="378.947" height="378.102" rx="189.051" fill="#FFE669"/><mask id="a" style="mask-type:alpha" maskUnits="userSpaceOnUse" x="174" y="98" width="380" height="379"><rect x="174.526" y="98.449" width="378.947" height="378.102" rx="189.051" fill="#FFE669"/></mask><g mask="url(#a)"><rect x="245.263" y="77.443" width="421.053" height="420.113" rx="210.056" fill="#D9D9D9"/></g><rect x="310.948" y="138.78" width="42.105" height="42.011" rx="21.006" fill="#fff"/><rect x="406.947" y="148.863" width="74.105" height="73.94" rx="36.97" fill="#fff"/><rect x="292.421" y="348.836" width="74.105" height="73.94" rx="36.97" fill="#fff"/><rect x="427.157" y="318.588" width="42.105" height="42.011" rx="21.006" fill="#fff"/><rect x="385.053" y="414.374" width="20.21" height="20.165" rx="10.083" fill="#fff"/><rect x="513.053" y="278.258" width="20.21" height="20.165" rx="10.083" fill="#fff"/><rect x="309.264" y="232.885" width="65.684" height="65.538" rx="32.769" fill="#fff"/><rect x="194.736" y="276.577" width="42.105" height="42.011" rx="21.006" fill="#fff"/><rect x="228.421" y="182.473" width="20.21" height="20.165" rx="10.083" fill="#fff"/><rect x="2192.33" y="163" width="105.748" height="105.512" rx="52.756" transform="rotate(30 2192.33 163)" fill="#73CBF3"/><path d="M2159.11 239.431l75.23 43.432-75.55 43.982.32-87.414z" fill="#73CBF3"/><rect x="2194" y="217" width="36" height="36" rx="18" fill="#fff"/><path d="M907.469 339.281c-14.584-5.729-28.646-12.76-42.188-21.093-13.541-8.594-22.526-14.844-26.953-18.75-4.167-3.907-7.552-7.162-10.156-9.766l33.594-32.813c7.552 7.552 18.229 15.495 32.031 23.829 26.823 15.885 55.208 25.13 85.156 27.734l8.203 44.531c-36.979 17.448-64.844 31.12-83.594 41.016l-21.874-41.797 25.781-12.891zm-125 139.844c0-10.417 2.083-20.443 6.25-30.078 4.427-9.636 10.547-19.922 18.359-30.859l38.281 26.562c-10.677 15.885-16.015 27.344-16.015 34.375 0 11.979 3.255 21.224 9.765 27.734 9.636 9.115 27.214 15.105 52.735 17.969 16.666 1.563 43.489 1.693 80.468.391 17.188-.781 29.558-1.172 37.108-1.172v46.875c-7.03 0-18.748.39-35.154 1.172-20.313.781-35.677 1.172-46.094 1.172-15.625 0-29.427-.651-41.406-1.954-35.938-3.645-62.631-13.802-80.078-30.468-16.146-15.886-24.219-36.459-24.219-61.719zm521.001-139.844c-14.58-5.729-28.65-12.76-42.19-21.093-13.54-8.594-22.52-14.844-26.95-18.75-4.17-3.907-7.55-7.162-10.16-9.766l33.6-32.813c7.55 7.552 18.22 15.495 32.03 23.829 26.82 15.885 55.21 25.13 85.15 27.734l8.21 44.531c-36.98 17.448-64.85 31.12-83.6 41.016l-21.87-41.797c6.77-3.386 15.36-7.682 25.78-12.891zm-125 139.844c0-10.417 2.08-20.443 6.25-30.078 4.43-9.636 10.55-19.922 18.36-30.859l38.28 26.562c-10.68 15.885-16.02 27.344-16.02 34.375 0 11.979 3.26 21.224 9.77 27.734 9.63 9.115 27.21 15.105 52.73 17.969 16.67 1.563 43.49 1.693 80.47.391 17.19-.781 29.56-1.172 37.11-1.172v46.875c-7.03 0-18.75.39-35.15 1.172-20.32.781-35.68 1.172-46.1 1.172-15.62 0-29.43-.651-41.4-1.954-35.94-3.645-62.63-13.802-80.08-30.468-16.15-15.886-24.22-36.459-24.22-61.719zm588.19-101.953c15.62 2.344 27.6 12.37 35.93 30.078 6.51 14.062 9.64 29.948 9.38 47.656-.26 19.011-4.43 35.547-12.5 49.61-7.55 12.5-21.49 24.739-41.8 36.718-21.09 12.5-44.4 21.745-69.92 27.735l-8.98-38.281c21.87-4.948 40.75-12.11 56.64-21.485 16.14-9.635 26.17-17.838 30.07-24.609 4.95-8.073 7.43-18.36 7.43-30.86.26-12.5-1.57-22.395-5.47-29.687-2.61-5.208-4.82-7.943-6.64-8.203-5.73-1.042-13.54-.261-23.44 2.344-9.64 2.604-17.97 5.338-25 8.203-6.77 2.864-16.41 7.031-28.91 12.5-28.38 12.76-48.43 20.052-60.15 21.875-14.33 1.823-30.08-2.605-47.27-13.282l20.7-33.203c3.39 2.084 7.3 4.037 11.72 5.86 4.43 1.562 7.56 2.213 9.38 1.953 8.07-1.302 24.61-7.552 49.61-18.75 15.36-6.771 27.21-11.849 35.54-15.235 8.34-3.385 18.62-6.38 30.86-8.984 12.5-2.865 23.44-3.516 32.82-1.953zm312.79 28.125c-.52.781 6.12 11.328 19.93 31.641 38.28-15.105 66.14-19.011 83.59-11.719 17.45 7.031 35.94 22.135 55.47 45.312 19.79 23.177 30.99 44.531 33.59 64.063l-46.09 6.64c-1.56-10.677-9.51-24.349-23.83-41.015-14.06-16.927-26.3-27.604-36.72-32.031-6.77-1.303-20.31 1.692-40.62 8.984 20.31 39.062 16.79 67.187-10.55 84.375-27.87 16.667-74.22 17.448-139.06 2.344-2.09-.521-4.04-1.042-5.86-1.563-11.98 8.073-21.75 15.365-29.3 21.875l-30.08-35.937c14.06-11.98 33.47-25.912 58.2-41.797 29.17-18.75 58.21-35.287 87.11-49.61-11.19-16.145-17.7-26.692-19.53-31.64-4.16-9.896-6.38-17.839-6.64-23.828v-.782c.52-13.802 11.98-28.125 34.38-42.968a443.635 443.635 0 0119.92-12.5c-17.45-28.125-29.3-59.245-35.55-93.36l46.1-8.203c7.81 39.063 21.74 70.573 41.79 94.531l-7.03 35.938-4.69 2.734c-27.86 15.365-42.7 24.87-44.53 28.516zm1.96 91.015c-19.27 9.376-39.33 20.313-60.16 32.813 38.54 2.604 61.85.13 69.92-7.422 0-5.469-3.25-13.932-9.76-25.391z" fill="#333"/></svg>